<svg xmlns="http://www.w3.org/2000/svg" xmlns:xlink="http://www.w3.org/1999/xlink" width="500" zoomAndPan="magnify" viewBox="0 0 375 374.999991" height="500" preserveAspectRatio="xMidYMid meet" version="1.0"><defs><clipPath id="6555f3bff5"><path d="M 91 85.777344 L 186 85.777344 L 186 240 L 91 240 Z M 91 85.777344 " clip-rule="nonzero"/></clipPath><clipPath id="912f5a7041"><path d="M 66 135 L 160 135 L 160 289 L 66 289 Z M 66 135 " clip-rule="nonzero"/></clipPath><clipPath id="51a9349bb5"><path d="M 185.78125 157 L 248.324219 157 L 248.324219 289.160156 L 185.78125 289.160156 Z M 185.78125 157 " clip-rule="nonzero"/></clipPath><clipPath id="eb4b3ae906"><path d="M 212.207031 120 L 320.03125 120 L 320.03125 289.160156 L 212.207031 289.160156 Z M 212.207031 120 " clip-rule="nonzero"/></clipPath><clipPath id="24d5b099c9"><path d="M 262 95.304688 L 299 95.304688 L 299 199 L 262 199 Z M 262 95.304688 " clip-rule="nonzero"/></clipPath></defs><g clip-path="url(#6555f3bff5)"><path fill="#004aad" d="M 185.566406 236.871094 C 185.421875 236.027344 185.207031 234.992188 184.972656 233.765625 C 184.832031 233.15625 184.683594 232.5 184.523438 231.804688 C 184.367188 231.105469 184.171875 230.367188 183.945312 229.59375 C 183.09375 226.488281 181.878906 222.734375 180.011719 218.601562 C 179.5625 217.5625 179.03125 216.519531 178.507812 215.433594 C 177.945312 214.367188 177.390625 213.253906 176.746094 212.15625 C 175.496094 209.933594 174.066406 207.65625 172.441406 205.382812 C 170.992188 203.339844 169.386719 201.285156 167.652344 199.246094 C 168.542969 200.144531 169.390625 201.035156 170.199219 201.917969 C 173.273438 205.277344 175.746094 208.449219 177.65625 211.160156 C 178.617188 212.511719 179.417969 213.761719 180.128906 214.84375 C 180.804688 215.945312 181.414062 216.871094 181.839844 217.65625 C 182.289062 218.429688 182.632812 219.023438 182.863281 219.425781 C 183.082031 219.832031 183.195312 220.042969 183.195312 220.042969 C 183.195312 220.042969 183.113281 219.820312 182.949219 219.386719 C 182.773438 218.957031 182.507812 218.324219 182.164062 217.492188 C 181.824219 216.660156 181.339844 215.664062 180.800781 214.472656 C 180.21875 213.304688 179.554688 211.953125 178.722656 210.496094 C 177.074219 207.5625 174.921875 204.0625 172.050781 200.375 C 169.210938 196.664062 165.726562 192.707031 161.644531 188.792969 C 157.574219 184.863281 152.933594 180.953125 147.988281 177.101562 C 143.042969 173.25 137.792969 169.4375 132.664062 165.507812 C 130.101562 163.546875 127.578125 161.539062 125.1875 159.464844 C 122.816406 157.378906 120.535156 155.242188 118.539062 153.011719 C 116.53125 150.777344 114.800781 148.453125 113.414062 146.042969 C 112.707031 144.839844 112.132812 143.601562 111.601562 142.351562 C 111.089844 141.09375 110.6875 139.800781 110.34375 138.492188 C 110.035156 137.167969 109.753906 135.832031 109.617188 134.449219 C 109.566406 134.109375 109.542969 133.761719 109.519531 133.410156 L 109.445312 132.363281 C 109.453125 131.699219 109.449219 131.039062 109.4375 130.375 C 109.523438 127.746094 109.988281 125.199219 110.828125 122.757812 L 111.167969 121.847656 C 111.277344 121.546875 111.371094 121.238281 111.53125 120.949219 C 111.808594 120.359375 112.089844 119.769531 112.367188 119.183594 C 112.703125 118.617188 113.035156 118.046875 113.355469 117.472656 C 113.695312 116.90625 114.105469 116.371094 114.46875 115.816406 C 116.03125 113.640625 117.898438 111.625 119.957031 109.78125 C 122.042969 107.960938 124.324219 106.332031 126.671875 104.855469 C 127.878906 104.15625 129.050781 103.429688 130.292969 102.824219 C 131.496094 102.15625 132.761719 101.613281 133.988281 101.035156 C 138.964844 98.84375 144.011719 97.34375 148.757812 96.332031 C 153.507812 95.332031 157.972656 94.820312 161.929688 94.675781 C 165.890625 94.542969 169.34375 94.707031 172.171875 94.972656 C 173.570312 95.160156 174.84375 95.257812 175.917969 95.464844 C 177 95.644531 177.941406 95.761719 178.667969 95.949219 C 180.152344 96.257812 180.945312 96.421875 180.945312 96.421875 C 180.945312 96.421875 180.1875 96.136719 178.765625 95.601562 C 178.058594 95.316406 177.148438 95.066406 176.085938 94.726562 C 175.035156 94.363281 173.773438 94.09375 172.371094 93.746094 C 169.546875 93.140625 166.050781 92.511719 161.960938 92.277344 C 157.875 92.027344 153.199219 92.089844 148.148438 92.753906 C 145.828125 93.058594 143.417969 93.488281 140.964844 94.054688 C 142.132812 93.679688 143.28125 93.34375 144.394531 93.046875 C 148.417969 91.996094 152.003906 91.304688 154.988281 90.898438 C 156.476562 90.707031 157.816406 90.570312 158.984375 90.4375 C 160.15625 90.351562 161.148438 90.277344 161.957031 90.21875 C 162.765625 90.164062 163.386719 90.160156 163.808594 90.140625 C 164.226562 90.125 164.441406 90.117188 164.441406 90.117188 C 164.441406 90.117188 164.226562 90.09375 163.808594 90.046875 C 163.390625 90.007812 162.773438 89.921875 161.960938 89.855469 C 161.148438 89.808594 160.144531 89.75 158.964844 89.679688 C 157.78125 89.65625 156.417969 89.625 154.886719 89.65625 C 151.835938 89.730469 148.109375 89.980469 143.882812 90.707031 C 142.9375 90.863281 141.960938 91.050781 140.96875 91.257812 C 140.988281 91.25 141.011719 91.242188 141.035156 91.234375 C 146.097656 89.730469 150.894531 88.824219 155.1875 88.296875 C 159.488281 87.804688 163.28125 87.671875 166.410156 87.695312 C 167.972656 87.75 169.378906 87.75 170.589844 87.859375 C 171.808594 87.945312 172.851562 87.984375 173.6875 88.105469 C 175.371094 88.292969 176.269531 88.394531 176.269531 88.394531 C 176.269531 88.394531 175.390625 88.171875 173.75 87.75 C 172.925781 87.53125 171.894531 87.351562 170.6875 87.109375 C 169.476562 86.839844 168.070312 86.667969 166.496094 86.453125 C 163.339844 86.089844 159.464844 85.769531 155.011719 85.910156 C 150.5625 86.042969 145.523438 86.519531 140.128906 87.722656 C 134.746094 88.917969 128.972656 90.738281 123.210938 93.589844 C 120.328125 95.007812 117.480469 96.726562 114.683594 98.6875 C 111.917969 100.703125 109.25 103.023438 106.808594 105.695312 C 106.21875 106.382812 105.625 107.078125 105.03125 107.769531 C 104.761719 108.136719 104.488281 108.507812 104.21875 108.875 C 104.367188 108.644531 104.515625 108.40625 104.664062 108.175781 C 104.898438 107.785156 105.171875 107.4375 105.433594 107.082031 C 105.695312 106.726562 105.957031 106.375 106.214844 106.027344 C 106.476562 105.683594 106.726562 105.332031 106.988281 105 C 107.261719 104.675781 107.53125 104.359375 107.800781 104.042969 C 108.339844 103.421875 108.84375 102.777344 109.386719 102.210938 C 110.476562 101.082031 111.488281 99.964844 112.539062 99.046875 C 113.058594 98.574219 113.558594 98.113281 114.042969 97.667969 C 114.542969 97.25 115.027344 96.847656 115.492188 96.460938 C 115.960938 96.074219 116.402344 95.691406 116.835938 95.34375 C 117.28125 95.011719 117.703125 94.691406 118.105469 94.390625 C 119.707031 93.160156 121.023438 92.292969 121.914062 91.675781 C 122.355469 91.363281 122.695312 91.128906 122.933594 90.984375 C 123.171875 90.835938 123.292969 90.761719 123.292969 90.761719 C 123.292969 90.761719 123.15625 90.808594 122.894531 90.902344 C 122.628906 90.992188 122.242188 91.148438 121.742188 91.359375 C 120.753906 91.804688 119.246094 92.359375 117.441406 93.335938 C 116.984375 93.570312 116.503906 93.820312 116 94.078125 C 115.5 94.351562 114.988281 94.664062 114.449219 94.980469 C 113.910156 95.300781 113.351562 95.632812 112.769531 95.980469 C 112.210938 96.367188 111.628906 96.769531 111.027344 97.183594 C 109.808594 97.984375 108.59375 98.992188 107.289062 100.03125 C 106.640625 100.550781 106.027344 101.160156 105.371094 101.753906 C 105.046875 102.058594 104.71875 102.363281 104.386719 102.671875 C 104.070312 102.992188 103.757812 103.339844 103.4375 103.679688 C 103.121094 104.023438 102.800781 104.371094 102.476562 104.722656 C 102.152344 105.078125 101.820312 105.425781 101.523438 105.820312 C 100.910156 106.601562 100.292969 107.394531 99.660156 108.199219 C 99.078125 109.054688 98.503906 109.941406 97.921875 110.839844 C 97.613281 111.28125 97.367188 111.769531 97.105469 112.25 C 96.84375 112.734375 96.582031 113.222656 96.320312 113.714844 C 94.296875 117.695312 92.808594 122.34375 92.25 127.257812 C 92.183594 127.871094 92.117188 128.488281 92.050781 129.105469 C 92.015625 129.726562 92.011719 130.347656 91.996094 130.96875 C 91.988281 131.59375 91.976562 132.222656 91.964844 132.847656 C 91.953125 133.480469 92.011719 134.070312 92.03125 134.6875 C 92.171875 137.136719 92.472656 139.644531 93.058594 142.132812 C 93.617188 144.628906 94.398438 147.109375 95.390625 149.5 C 96.378906 151.894531 97.597656 154.183594 98.933594 156.347656 C 100.289062 158.496094 101.777344 160.515625 103.34375 162.398438 C 104.914062 164.265625 106.558594 166 108.238281 167.609375 C 109.90625 169.234375 111.613281 170.722656 113.320312 172.113281 C 115.027344 173.507812 116.726562 174.816406 118.398438 176.050781 C 121.75 178.523438 125.015625 180.6875 128.082031 182.695312 C 131.152344 184.691406 134.035156 186.511719 136.664062 188.183594 C 139.289062 189.855469 141.683594 191.367188 143.769531 192.730469 C 145.839844 194.113281 147.65625 195.289062 149.113281 196.300781 C 149.84375 196.804688 150.496094 197.253906 151.0625 197.644531 C 151.636719 198.035156 152.117188 198.367188 152.496094 198.648438 C 153.277344 199.191406 153.695312 199.484375 153.695312 199.484375 C 153.695312 199.484375 153.363281 199.097656 152.742188 198.378906 C 152.425781 198.023438 152.039062 197.582031 151.566406 197.074219 C 151.097656 196.5625 150.558594 195.976562 149.925781 195.34375 C 148.675781 194.0625 147.125 192.519531 145.25 190.832031 C 143.390625 189.128906 141.242188 187.238281 138.820312 185.238281 C 137.507812 184.152344 136.109375 183.023438 134.65625 181.863281 C 138.84375 184.738281 142.867188 187.503906 146.609375 190.28125 C 151.449219 193.851562 155.824219 197.433594 159.605469 201 C 163.398438 204.558594 166.601562 208.085938 169.203125 211.417969 C 171.800781 214.75 173.835938 217.84375 175.378906 220.480469 C 176.917969 223.117188 177.984375 225.28125 178.707031 226.757812 C 179.398438 228.253906 179.765625 229.054688 179.765625 229.054688 C 179.765625 229.054688 179.515625 228.210938 179.042969 226.625 C 178.507812 225.066406 177.773438 222.738281 176.496094 219.910156 C 175.238281 217.078125 173.550781 213.679688 171.175781 210.03125 C 170.695312 209.28125 170.1875 208.519531 169.65625 207.75 C 171.3125 209.765625 172.816406 211.777344 174.160156 213.753906 C 174.871094 214.757812 175.496094 215.78125 176.128906 216.757812 C 176.722656 217.757812 177.328125 218.71875 177.855469 219.683594 C 179.988281 223.523438 181.59375 227.035156 182.753906 229.988281 C 183.050781 230.726562 183.324219 231.425781 183.558594 232.09375 C 183.800781 232.761719 184.027344 233.386719 184.238281 233.96875 C 184.621094 235.140625 184.972656 236.136719 185.210938 236.957031 C 185.699219 238.59375 185.964844 239.46875 185.964844 239.46875 C 185.964844 239.46875 185.824219 238.566406 185.566406 236.871094 " fill-opacity="1" fill-rule="nonzero"/></g><g clip-path="url(#912f5a7041)"><path fill="#8d9094" d="M 158.898438 232.667969 C 158.34375 230.175781 157.558594 227.695312 156.566406 225.300781 C 155.578125 222.90625 154.359375 220.617188 153.023438 218.457031 C 151.667969 216.304688 150.179688 214.285156 148.613281 212.40625 C 147.042969 210.535156 145.398438 208.804688 143.71875 207.191406 C 142.050781 205.566406 140.34375 204.082031 138.636719 202.691406 C 136.933594 201.292969 135.234375 199.984375 133.558594 198.753906 C 130.207031 196.277344 126.941406 194.113281 123.875 192.105469 C 120.804688 190.109375 117.921875 188.289062 115.292969 186.617188 C 112.667969 184.945312 110.277344 183.4375 108.1875 182.070312 C 106.117188 180.691406 104.300781 179.511719 102.84375 178.5 C 102.113281 177.996094 101.460938 177.546875 100.894531 177.15625 C 100.320312 176.765625 99.839844 176.433594 99.460938 176.152344 C 98.679688 175.609375 98.261719 175.320312 98.261719 175.320312 C 98.261719 175.320312 98.59375 175.703125 99.214844 176.421875 C 99.53125 176.78125 99.917969 177.21875 100.390625 177.726562 C 100.859375 178.238281 101.398438 178.824219 102.035156 179.457031 C 103.28125 180.738281 104.832031 182.28125 106.707031 183.96875 C 108.566406 185.675781 110.714844 187.566406 113.140625 189.5625 C 114.453125 190.648438 115.847656 191.777344 117.300781 192.941406 C 113.117188 190.066406 109.089844 187.296875 105.347656 184.519531 C 100.507812 180.949219 96.132812 177.371094 92.351562 173.804688 C 88.558594 170.246094 85.355469 166.714844 82.753906 163.382812 C 80.15625 160.054688 78.121094 156.957031 76.582031 154.320312 C 75.039062 151.6875 73.972656 149.523438 73.25 148.042969 C 72.558594 146.546875 72.191406 145.75 72.191406 145.75 C 72.191406 145.75 72.441406 146.59375 72.914062 148.175781 C 73.449219 149.738281 74.1875 152.0625 75.460938 154.890625 C 76.71875 157.722656 78.40625 161.125 80.78125 164.773438 C 81.261719 165.519531 81.769531 166.28125 82.300781 167.054688 C 80.644531 165.039062 79.140625 163.023438 77.796875 161.046875 C 77.089844 160.042969 76.460938 159.023438 75.828125 158.042969 C 75.234375 157.042969 74.628906 156.082031 74.105469 155.117188 C 71.96875 151.277344 70.363281 147.769531 69.203125 144.8125 C 68.90625 144.078125 68.632812 143.375 68.402344 142.707031 C 68.15625 142.039062 67.933594 141.414062 67.722656 140.835938 C 67.339844 139.660156 66.988281 138.664062 66.746094 137.84375 C 66.257812 136.207031 65.992188 135.332031 65.992188 135.332031 C 65.992188 135.332031 66.132812 136.234375 66.390625 137.929688 C 66.539062 138.773438 66.75 139.8125 66.984375 141.039062 C 67.125 141.644531 67.273438 142.300781 67.433594 142.996094 C 67.589844 143.699219 67.789062 144.433594 68.011719 145.207031 C 68.863281 148.316406 70.078125 152.070312 71.945312 156.199219 C 72.394531 157.242188 72.925781 158.28125 73.449219 159.371094 C 74.011719 160.433594 74.566406 161.546875 75.210938 162.644531 C 76.460938 164.867188 77.890625 167.144531 79.519531 169.417969 C 80.96875 171.464844 82.570312 173.515625 84.304688 175.554688 C 83.414062 174.65625 82.566406 173.765625 81.757812 172.882812 C 78.683594 169.523438 76.210938 166.351562 74.300781 163.644531 C 73.339844 162.289062 72.539062 161.042969 71.828125 159.957031 C 71.15625 158.855469 70.542969 157.929688 70.117188 157.148438 C 69.667969 156.371094 69.324219 155.777344 69.09375 155.375 C 68.875 154.96875 68.761719 154.757812 68.761719 154.757812 C 68.761719 154.757812 68.847656 154.980469 69.007812 155.414062 C 69.1875 155.84375 69.449219 156.480469 69.792969 157.3125 C 70.132812 158.144531 70.617188 159.136719 71.160156 160.328125 C 71.738281 161.496094 72.402344 162.847656 73.234375 164.308594 C 74.882812 167.238281 77.035156 170.742188 79.90625 174.429688 C 82.746094 178.136719 86.230469 182.09375 90.3125 186.011719 C 94.382812 189.9375 99.023438 193.851562 103.96875 197.699219 C 108.914062 201.554688 114.164062 205.363281 119.292969 209.296875 C 121.855469 211.257812 124.378906 213.261719 126.769531 215.339844 C 129.140625 217.421875 131.421875 219.558594 133.417969 221.792969 C 135.425781 224.027344 137.15625 226.347656 138.546875 228.761719 C 139.25 229.960938 139.824219 231.203125 140.355469 232.453125 C 140.867188 233.710938 141.269531 235 141.617188 236.308594 C 141.921875 237.632812 142.203125 238.96875 142.339844 240.351562 C 142.390625 240.691406 142.414062 241.042969 142.4375 241.390625 L 142.511719 242.4375 C 142.507812 243.101562 142.511719 243.761719 142.519531 244.425781 C 142.433594 247.058594 141.96875 249.601562 141.132812 252.046875 L 140.792969 252.953125 C 140.679688 253.257812 140.585938 253.566406 140.425781 253.851562 C 140.148438 254.441406 139.867188 255.03125 139.589844 255.621094 C 139.253906 256.183594 138.925781 256.753906 138.601562 257.328125 C 138.261719 257.894531 137.851562 258.429688 137.488281 258.984375 C 135.925781 261.160156 134.058594 263.175781 132 265.019531 C 129.914062 266.839844 127.636719 268.46875 125.285156 269.945312 C 124.078125 270.644531 122.910156 271.371094 121.664062 271.980469 C 120.460938 272.644531 119.199219 273.191406 117.972656 273.765625 C 112.992188 275.960938 107.945312 277.457031 103.199219 278.46875 C 98.449219 279.472656 93.984375 279.980469 90.027344 280.128906 C 86.066406 280.257812 82.613281 280.09375 79.785156 279.828125 C 78.386719 279.640625 77.113281 279.542969 76.039062 279.335938 C 74.957031 279.15625 74.015625 279.042969 73.289062 278.855469 C 71.804688 278.542969 71.011719 278.378906 71.011719 278.378906 C 71.011719 278.378906 71.769531 278.664062 73.191406 279.199219 C 73.898438 279.484375 74.808594 279.738281 75.867188 280.074219 C 76.921875 280.4375 78.183594 280.707031 79.585938 281.058594 C 82.410156 281.664062 85.90625 282.289062 89.996094 282.523438 C 94.085938 282.777344 98.757812 282.714844 103.808594 282.046875 C 106.128906 281.742188 108.539062 281.3125 110.992188 280.75 C 109.824219 281.121094 108.675781 281.457031 107.5625 281.757812 C 103.539062 282.804688 99.953125 283.496094 96.96875 283.902344 C 95.480469 284.09375 94.140625 284.230469 92.972656 284.363281 C 91.800781 284.449219 90.808594 284.527344 90 284.585938 C 89.191406 284.636719 88.570312 284.640625 88.152344 284.664062 C 87.730469 284.675781 87.515625 284.683594 87.515625 284.683594 C 87.515625 284.683594 87.730469 284.707031 88.148438 284.753906 C 88.566406 284.792969 89.183594 284.878906 89.996094 284.945312 C 90.808594 284.992188 91.8125 285.050781 92.992188 285.121094 C 94.175781 285.144531 95.539062 285.179688 97.070312 285.144531 C 100.125 285.070312 103.847656 284.820312 108.074219 284.097656 C 109.019531 283.9375 109.996094 283.75 110.988281 283.542969 C 110.96875 283.550781 110.945312 283.558594 110.921875 283.566406 C 105.859375 285.074219 101.0625 285.980469 96.769531 286.503906 C 92.46875 286.996094 88.679688 287.132812 85.546875 287.109375 C 83.984375 287.050781 82.582031 287.050781 81.367188 286.945312 C 80.148438 286.855469 79.105469 286.820312 78.269531 286.695312 C 76.585938 286.507812 75.691406 286.410156 75.691406 286.410156 C 75.691406 286.410156 76.566406 286.632812 78.210938 287.050781 C 79.03125 287.273438 80.0625 287.453125 81.269531 287.695312 C 82.480469 287.960938 83.886719 288.132812 85.460938 288.347656 C 88.621094 288.710938 92.492188 289.03125 96.945312 288.894531 C 101.394531 288.757812 106.433594 288.28125 111.828125 287.082031 C 117.210938 285.882812 122.984375 284.0625 128.746094 281.214844 C 131.628906 279.792969 134.480469 278.078125 137.277344 276.117188 C 140.039062 274.097656 142.707031 271.777344 145.148438 269.105469 C 145.738281 268.417969 146.332031 267.726562 146.925781 267.03125 C 147.195312 266.664062 147.46875 266.292969 147.738281 265.925781 C 147.59375 266.15625 147.441406 266.394531 147.292969 266.625 C 147.058594 267.015625 146.789062 267.367188 146.523438 267.722656 C 146.261719 268.074219 146 268.425781 145.742188 268.773438 C 145.480469 269.121094 145.230469 269.46875 144.96875 269.800781 C 144.695312 270.125 144.425781 270.441406 144.160156 270.757812 C 143.617188 271.378906 143.113281 272.027344 142.570312 272.589844 C 141.480469 273.71875 140.46875 274.835938 139.417969 275.753906 C 138.898438 276.230469 138.398438 276.691406 137.914062 277.132812 C 137.414062 277.550781 136.929688 277.953125 136.464844 278.339844 C 135.996094 278.726562 135.554688 279.113281 135.121094 279.460938 C 134.675781 279.789062 134.253906 280.109375 133.851562 280.410156 C 132.25 281.640625 130.9375 282.507812 130.046875 283.125 C 129.601562 283.441406 129.261719 283.675781 129.023438 283.816406 C 128.785156 283.964844 128.664062 284.042969 128.664062 284.042969 C 128.664062 284.042969 128.800781 283.996094 129.0625 283.898438 C 129.332031 283.808594 129.714844 283.652344 130.214844 283.441406 C 131.203125 283 132.710938 282.445312 134.515625 281.464844 C 134.972656 281.230469 135.453125 280.984375 135.960938 280.722656 C 136.457031 280.449219 136.96875 280.136719 137.511719 279.824219 C 138.046875 279.5 138.605469 279.167969 139.1875 278.820312 C 139.746094 278.433594 140.328125 278.03125 140.929688 277.617188 C 142.152344 276.816406 143.363281 275.808594 144.667969 274.773438 C 145.316406 274.25 145.929688 273.640625 146.585938 273.046875 C 146.910156 272.746094 147.238281 272.441406 147.570312 272.128906 C 147.890625 271.808594 148.199219 271.460938 148.519531 271.121094 C 148.835938 270.777344 149.15625 270.429688 149.484375 270.078125 C 149.804688 269.722656 150.140625 269.375 150.4375 268.980469 C 151.046875 268.199219 151.667969 267.40625 152.296875 266.601562 C 152.878906 265.75 153.453125 264.863281 154.039062 263.964844 C 154.339844 263.519531 154.589844 263.035156 154.851562 262.554688 C 155.113281 262.066406 155.375 261.578125 155.636719 261.085938 C 157.664062 257.105469 159.148438 252.460938 159.707031 247.546875 C 159.773438 246.929688 159.839844 246.3125 159.90625 245.695312 C 159.941406 245.078125 159.945312 244.457031 159.960938 243.832031 C 159.972656 243.210938 159.980469 242.582031 159.992188 241.953125 C 160.003906 241.324219 159.949219 240.730469 159.925781 240.113281 C 159.785156 237.667969 159.484375 235.160156 158.898438 232.667969 " fill-opacity="1" fill-rule="nonzero"/></g><g clip-path="url(#51a9349bb5)"><path fill="#4d4d4d" d="M 185.78125 157.28125 L 185.78125 266.183594 C 185.78125 275.894531 193.488281 285.183594 205.324219 289.160156 L 205.324219 199.195312 C 206.402344 200.027344 218.65625 209.484375 231.40625 219.777344 C 234.699219 216.976562 238.378906 214.21875 242.488281 211.558594 C 244.335938 210.367188 246.199219 209.144531 248.066406 207.882812 L 185.78125 157.28125 " fill-opacity="1" fill-rule="nonzero"/></g><g clip-path="url(#eb4b3ae906)"><path fill="#4d4d4d" d="M 312.40625 120.1875 C 315.347656 167.785156 278.339844 197.039062 249.132812 215.90625 C 216.144531 237.210938 212.71875 265.300781 212.71875 265.300781 C 234.917969 229.3125 261.703125 230.394531 287.8125 210.414062 L 287.734375 289.160156 C 299.570312 285.183594 307.28125 275.894531 307.28125 266.183594 L 307.28125 189.96875 C 332.683594 155.777344 312.40625 120.1875 312.40625 120.1875 " fill-opacity="1" fill-rule="nonzero"/></g><g clip-path="url(#24d5b099c9)"><path fill="#cb6ce6" d="M 298.296875 122.109375 C 294.898438 101.589844 282.578125 95.726562 282.578125 95.726562 C 294.710938 135.347656 281.722656 170.046875 262.464844 198.464844 C 283.511719 176.960938 301.171875 150.882812 298.296875 122.109375 " fill-opacity="1" fill-rule="nonzero"/></g></svg>